<svg xmlns="http://www.w3.org/2000/svg" xmlns:xlink="http://www.w3.org/1999/xlink" xmlns:svgjs="http://svgjs.com/svgjs" version="1.1" width="512" height="512" x="0" y="0" viewBox="0 0 128 128" style="enable-background:new 0 0 512 512" xml:space="preserve" class=""><circle r="64" cx="64" cy="64" fill="#444444" shape="circle" transform="matrix(0.51,0,0,0.51,31.36,31.36)"/><g transform="matrix(0.7,0,0,0.7,19.200000000000003,19.200000000000003)"><g xmlns="http://www.w3.org/2000/svg"><circle cx="64" cy="64" fill="#fbcae0" r="45" data-original="#fecd1a" class=""/><path d="m84.226 57.13a11.356 11.356 0 0 0 -11.344-11.344h-.776v-4.93a3.426 3.426 0 1 0 -6.851 0v4.93h-6.231v-4.93a3.426 3.426 0 1 0 -6.851 0v4.93h-4.484a3.915 3.915 0 0 0 0 7.83h3.016v21.884h-3.016a3.915 3.915 0 0 0 0 7.83h4.484v4.931a3.426 3.426 0 0 0 6.851 0v-4.929h6.231v4.931a3.426 3.426 0 0 0 6.851 0v-4.931h.776a11.327 11.327 0 0 0 8.553-18.773 11.286 11.286 0 0 0 2.791-7.429zm-8.808 0a3.518 3.518 0 0 1 -3.518 3.514h-13.365v-7.028h13.365a3.519 3.519 0 0 1 3.518 3.514zm-3.518 18.37h-13.365v-7.026h13.365a3.514 3.514 0 1 1 0 7.028z" fill="#ffffff" data-original="#fc852d" class=""/></g></g></svg>
