<svg xmlns="http://www.w3.org/2000/svg" xmlns:xlink="http://www.w3.org/1999/xlink" xmlns:svgjs="http://svgjs.com/svgjs" version="1.1" width="" height="" x="0" y="0" viewBox="0 0 32 32" style="enable-background:new 0 0 512 512" xml:space="preserve" class=""><g><g xmlns="http://www.w3.org/2000/svg" id="Layer_2"><path d="m14.8745 19.2417c.2788 0 .5562-.1157.7539-.3428l8.6069-9.8643c.3633-.416.3203-1.0479-.0962-1.4106-.4146-.3628-1.0464-.3213-1.4106.0962l-8.6069 9.8643c-.3633.416-.3203 1.0479.0962 1.4106.1894.1655.4233.2466.6567.2466z" fill="#facadf" data-original="#000000"/><path d="m30.7876 6.7578c-.415-.3623-1.0469-.3203-1.4106.0962l-14.0723 16.1274-6.8018-7.5513c-.3706-.4106-1.0024-.4438-1.4126-.0737-.4102.3696-.4434 1.002-.0737 1.4126l3.9689 4.4062-1.5724 1.8048-6.8003-7.5488c-.3706-.4106-1.0024-.4438-1.4126-.0737s-.4434 1.002-.0737 1.4126l7.5562 8.3872c.1899.2104.46.3306.7432.3306h.0083c.2861-.0024.5576-.1274.7456-.3433l2.1541-2.4725 2.2395 2.4862c.1899.2104.46.3306.7432.3306h.0078c.2861-.0024.5576-.127.7456-.3428l14.814-16.9775c.3631-.4162.3201-1.0475-.0964-1.4108z" fill="#facadf" data-original="#000000"/></g></g></svg>
